<?xml version="1.0" standalone="no"?>
<!DOCTYPE svg PUBLIC "-//W3C//DTD SVG 20010904//EN"
 "http://www.w3.org/TR/2001/REC-SVG-20010904/DTD/svg10.dtd">
<svg version="1.0" xmlns="http://www.w3.org/2000/svg"
 width="32.000000pt" height="32.000000pt" viewBox="0 0 32.000000 32.000000"
 preserveAspectRatio="xMidYMid meet">
<metadata>
Created by potrace 1.11, written by Peter Selinger 2001-2013
</metadata>
<g transform="translate(0.000000,32.000000) scale(0.100000,-0.100000)"
fill="#000000" stroke="none">
<path d="M120 280 c0 -38 -2 -40 -30 -40 -36 0 -37 -6 -9 -31 19 -16 20 -20 6
-34 -9 -8 -21 -15 -27 -15 -18 0 -66 -53 -52 -58 7 -2 12 -17 12 -33 0 -16 5
-29 10 -29 6 0 10 -9 10 -20 0 -19 7 -20 105 -20 99 0 107 2 130 25 14 13 25
35 25 49 0 13 5 26 12 28 14 5 -34 58 -52 58 -6 0 -18 7 -27 15 -14 14 -13 18
6 34 28 25 27 31 -9 31 -28 0 -30 2 -30 40 l0 40 -40 0 -40 0 0 -40z m-40
-160 c0 -18 7 -20 80 -20 73 0 80 2 80 20 0 11 5 20 10 20 15 0 12 -29 -4 -46
-20 -19 -152 -19 -172 0 -16 17 -19 46 -4 46 6 0 10 -9 10 -20z m180 -90 c0
-6 -40 -10 -100 -10 -60 0 -100 4 -100 10 0 6 40 10 100 10 60 0 100 -4 100
-10z"/>
</g>
</svg>
